<svg width="29" height="29" viewBox="0 0 29 29" fill="none" xmlns="http://www.w3.org/2000/svg" role="img" aria-label="Nodrat">
<title>Nodrat</title>
<path d="M22.8828 13.0359C21.5948 12.4447 20.8948 11.7408 20.9508 10.1359C21.0068 9.12234 21.3708 7.29224 21.3148 5.15243C21.2588 3.74467 20.9788 2.22428 20.1948 1.23884C19.6628 0.591269 19.0188 0.225249 18.1508 0.197094C16.8628 0.168939 15.8268 0.844667 15.0148 1.46408C13.0268 3.04078 11.3188 5.80001 9.80676 8.67185C9.72276 8.81263 9.55476 8.75632 9.41476 8.75632C8.57476 8.6437 7.59476 8.50292 6.47476 8.47476C4.23476 8.3903 1.40676 8.55923 0.762762 10.333C0.566762 10.868 0.622762 11.6845 0.958762 12.3039C1.15476 12.6981 1.43476 13.0922 1.77076 13.4583C2.66676 14.4155 3.98276 15.2602 4.85076 15.9359C5.85876 16.6961 6.41876 17.6534 6.36276 18.4418C6.41876 19.2019 6.25076 20.4971 6.27876 22.0738C6.30676 23.6786 6.58676 25.5932 7.37076 27.0291C7.90276 27.9583 8.82676 28.8311 10.2548 28.8592C11.2628 28.9155 12.1028 28.4932 12.8028 27.9864C14.3988 26.832 15.9668 24.4952 17.0028 22.4961C17.3108 21.9049 17.6188 21.2573 17.9268 20.5252C18.0108 20.3563 18.0108 20.2719 18.1788 20.3C18.9908 20.3563 19.9708 20.4408 20.8948 20.4689C22.6588 20.5534 25.8228 20.5816 27.1668 19.7087C27.7828 19.3427 28.2868 18.7515 28.3148 17.7379C28.3428 17.0903 28.0068 16.5272 27.6428 16.0485C26.8308 15.0913 24.5908 13.7961 22.8828 13.0359ZM12.0748 9.17865C12.9148 7.12331 15.1268 3.37865 17.0028 2.19612C17.3108 1.99904 17.7588 1.80195 18.0668 1.8301C18.5708 1.8301 18.8508 2.25243 19.0468 2.70292C19.7468 4.13884 19.6908 6.5602 19.5508 8.61554C19.4388 9.967 18.8508 11.1495 17.3108 10.8961C16.9468 10.8398 16.6108 10.699 16.2468 10.5864C15.0428 10.2204 13.6428 9.82622 12.1588 9.51651C12.0188 9.4602 12.0468 9.37573 12.0748 9.17865ZM6.33476 13.5146C5.29876 13.599 3.03076 12.4728 2.41476 11.6282C2.33076 11.5155 2.21876 11.3185 2.30276 11.0932C2.72276 10.3612 5.52276 10.1641 8.68676 10.5301C8.85476 10.5583 8.79876 10.5864 8.71476 10.8117C8.57476 11.0932 8.35076 11.4874 8.09876 11.9379C7.70676 12.5573 7.14676 13.4583 6.33476 13.5146ZM11.7388 26.5786C11.3188 26.8884 10.7868 27.2262 10.2268 27.1699C9.63876 27.1136 9.19076 26.3816 9.02276 25.734C8.68676 24.8049 8.51876 21.9893 9.10676 20.4689C9.41476 19.6524 9.91876 19.0049 10.7868 18.8922C11.0948 18.8641 11.5148 18.8922 11.8508 18.9486C12.9988 19.1456 14.4268 19.4553 16.0788 19.7369C16.3028 19.7932 16.3308 19.8214 16.2748 20.0185C15.6308 21.4825 13.5588 25.199 11.7388 26.5786ZM17.2268 17.7097C15.7708 17.4845 13.6708 16.9777 12.5508 16.4146C11.6268 15.9359 10.8988 15.3447 10.8708 14.1903C10.8428 13.3175 11.1228 12.0223 11.4308 11.1214C11.4588 11.0651 11.5148 11.0087 11.6268 11.0369C12.9428 11.2621 14.8748 11.7126 16.1348 12.1631C16.6388 12.3039 17.6188 12.7262 18.0388 13.3738C18.2908 13.7117 18.3748 14.2185 18.3748 14.5282C18.3468 15.5699 17.9828 16.499 17.5348 17.6252C17.4788 17.7097 17.3948 17.7379 17.2268 17.7097ZM26.6068 17.7097C26.4668 18.1884 24.9268 18.3573 23.3308 18.3573C21.9028 18.3573 20.3348 18.2165 19.0748 18.0476C18.8788 18.0194 18.9348 17.9631 18.9628 17.8505C19.1868 17.2311 19.4388 16.4709 19.6908 15.7107C20.0548 14.8097 20.6428 14.2466 21.5388 14.3592C21.9028 14.3874 22.3788 14.5845 22.8548 14.8379C23.6388 15.2602 24.4788 15.767 25.2068 16.3301C25.6828 16.6961 26.6348 17.5126 26.6068 17.7097Z" fill="#00F2B1"/>
</svg>
