<svg width="85" height="16" viewBox="0 0 85 16" fill="none" xmlns="http://www.w3.org/2000/svg" role="img" aria-label="Nodrat">
<title>Nodrat</title>
<path d="M6.6316 4.8598C2.83488 4.8598 0.0506229 7.44157 0 10.8333V15.6425C0 15.845 0.0506229 15.9462 0.202491 15.9462H2.07554C2.22741 15.9462 2.32865 15.845 2.32865 15.6425V11.3395C2.32865 9.0615 4.04983 7.2897 6.6316 7.2897C9.21336 7.2897 11.0358 8.85901 11.0358 11.2383V15.6425C11.0358 15.7943 11.137 15.8956 11.2889 15.8956H13.3644C13.5163 15.8956 13.5669 15.845 13.5669 15.6425V11.0864C13.5669 7.64406 10.8333 4.8598 6.6316 4.8598Z" fill="currentColor"/>
<path d="M22.5778 4.80917C18.2243 4.80917 14.9338 7.28969 14.9338 10.5296C14.9338 13.4657 17.5155 15.9968 22.2235 15.9968C26.6277 16.0981 30.2725 13.7694 30.2725 10.5296C30.2725 7.44156 27.2351 4.80917 22.5778 4.80917ZM22.5778 13.7188C19.7429 13.7188 17.4649 12.6557 17.4649 10.5802C17.4649 8.96025 19.1355 7.28969 22.5272 7.28969C25.2608 7.28969 27.6401 8.55526 27.6401 10.5296C27.6401 12.0482 26.1214 13.6682 22.5778 13.7188Z" fill="currentColor"/>
<path d="M46.9274 0H44.7506C44.5987 0 44.5481 0.101246 44.5481 0.202491V7.44156C43.6875 6.12536 41.9664 4.85979 39.1315 4.85979C35.1829 4.85979 31.9937 7.18844 31.9937 10.5802C32.0443 13.4151 34.3729 15.9462 38.8277 15.9462C41.0551 15.9462 42.8776 15.3387 43.89 14.3263L43.1813 11.8964C42.0676 12.9088 41.0045 13.6175 38.929 13.6682C36.8028 13.6682 34.5754 12.6557 34.5754 10.5802C34.5754 9.11211 36.246 7.34031 39.1821 7.34031C42.5232 7.34031 44.4975 9.36523 44.5481 12.4532V15.6425C44.5481 15.7943 44.5987 15.8956 44.7506 15.8956H46.8768C47.0793 15.8956 47.1299 15.845 47.1299 15.6425V0.202491C47.1299 0.101246 47.0793 0 46.9274 0Z" fill="currentColor"/>
<path d="M58.4188 4.8598H56.9507C52.7996 4.8598 49.661 7.34032 49.256 10.3271C49.2054 10.5802 49.256 15.5918 49.256 15.5918C49.256 15.7943 49.3066 15.8956 49.4585 15.8956H51.534C51.7365 15.8956 51.7872 15.845 51.7872 15.6425V11.2383C51.7872 8.85901 53.8121 7.2897 57.1026 7.2897H58.4188C58.5706 7.2897 58.6212 7.18845 58.6212 7.08721V5.06229C58.6212 4.91043 58.52 4.8598 58.4188 4.8598Z" fill="currentColor"/>
<path d="M74.8071 5.01166C74.674 5.01166 72.5845 5.01166 72.5845 5.01166C72.4326 5.01166 72.3907 5.06229 72.3907 5.21416V7.44157C71.5301 6.12537 69.8089 4.8598 66.5184 4.8598C62.823 4.8598 59.1275 7.03658 59.1275 10.5802C59.1275 13.4151 61.6586 15.9462 65.911 15.9462C68.2902 15.9462 70.1127 15.4906 71.5807 14.3263L70.7708 11.8964C69.6571 12.8582 68.6446 13.6176 66.3159 13.6682C64.1898 13.6682 61.7599 12.7063 61.7599 10.5802C61.7599 8.70714 63.8354 7.2897 66.6197 7.2897C69.8089 7.2897 72.2388 9.21337 72.2894 12.9088V15.6425C72.2894 15.7943 72.3401 15.8956 72.4919 15.8956H74.6181C74.8206 15.8956 74.9725 15.845 74.9725 15.6425V5.21416C74.9725 5.07612 74.9403 5.01166 74.8071 5.01166Z" fill="currentColor"/>
<path d="M83.9327 7.44156C84.0846 7.44156 84.1352 7.34031 84.1352 7.23907V5.21415C84.1352 5.06228 84.0339 5.01166 83.9327 5.01166H80.4903V1.61993C80.4903 1.46806 80.4397 1.41743 80.2879 1.41743H78.3136C78.1617 1.41743 78.1111 1.51868 78.1111 1.61993V5.01166H76.5924C76.4405 5.01166 76.3899 5.06228 76.3899 5.21415V7.23907C76.3899 7.39093 76.4405 7.44156 76.5924 7.44156H78.1111V10.732C78.1111 14.1744 80.541 15.9968 83.8821 15.9968H83.9327C84.0846 15.9968 84.1352 15.8956 84.1352 15.7943V13.8707C84.1352 13.7188 84.0846 13.6682 83.9327 13.6682H83.7302C81.6547 13.6682 80.541 12.5545 80.541 10.732V7.44156H83.9327Z" fill="currentColor"/>
</svg>
